<svg width="20" height="20" viewBox="0 0 20 20" fill="none" xmlns="http://www.w3.org/2000/svg">
<path d="M9.99935 19.0084C9.42435 19.0084 8.88268 18.7167 8.49935 18.2084L7.24935 16.5417C7.22435 16.5084 7.12435 16.4667 7.08268 16.4584H6.66602C3.19102 16.4584 1.04102 15.5167 1.04102 10.8334V6.66675C1.04102 2.98341 2.98268 1.04175 6.66602 1.04175H13.3327C17.016 1.04175 18.9577 2.98341 18.9577 6.66675V10.8334C18.9577 14.5167 17.016 16.4584 13.3327 16.4584H12.916C12.8493 16.4584 12.791 16.4917 12.7493 16.5417L11.4993 18.2084C11.116 18.7167 10.5743 19.0084 9.99935 19.0084ZM6.66602 2.29175C3.68268 2.29175 2.29102 3.68341 2.29102 6.66675V10.8334C2.29102 14.6001 3.58268 15.2084 6.66602 15.2084H7.08268C7.50768 15.2084 7.99101 15.4501 8.24935 15.7917L9.49935 17.4584C9.79101 17.8417 10.2077 17.8417 10.4993 17.4584L11.7493 15.7917C12.0243 15.4251 12.4577 15.2084 12.916 15.2084H13.3327C16.316 15.2084 17.7077 13.8167 17.7077 10.8334V6.66675C17.7077 3.68341 16.316 2.29175 13.3327 2.29175H6.66602Z" fill="#858585"/>
<path d="M14.1673 7.29175H5.83398C5.49232 7.29175 5.20898 7.00841 5.20898 6.66675C5.20898 6.32508 5.49232 6.04175 5.83398 6.04175H14.1673C14.509 6.04175 14.7923 6.32508 14.7923 6.66675C14.7923 7.00841 14.509 7.29175 14.1673 7.29175Z" fill="#858585"/>
<path d="M10.834 11.4583H5.83398C5.49232 11.4583 5.20898 11.1749 5.20898 10.8333C5.20898 10.4916 5.49232 10.2083 5.83398 10.2083H10.834C11.1757 10.2083 11.459 10.4916 11.459 10.8333C11.459 11.1749 11.1757 11.4583 10.834 11.4583Z" fill="#858585"/>
</svg>
