<svg width="16" height="16" viewBox="0 0 16 16" fill="none" xmlns="http://www.w3.org/2000/svg">
<path d="M3.66836 16C3.59393 16 3.51207 15.9926 3.44509 15.9851L1.83014 15.7617C1.05616 15.6575 0.356598 14.9649 0.237524 14.1756L0.0142593 12.5448C-0.0601622 12.0235 0.163102 11.3459 0.53521 10.9661L3.80231 7.69702C3.27392 5.58218 3.88418 3.34819 5.43959 1.80674C7.85084 -0.598521 11.7729 -0.605968 14.1916 1.80674C15.36 2.97586 16 4.5322 16 6.18535C16 7.8385 15.36 9.39485 14.1916 10.564C12.6287 12.1129 10.4035 12.7235 8.30481 12.1873L5.03027 15.4564C4.7177 15.784 4.15954 16 3.66836 16ZM9.80813 1.1142C8.50575 1.1142 7.21082 1.60568 6.22101 2.59608C4.88143 3.92902 4.39769 5.88004 4.95585 7.69702C5.01538 7.89808 4.96329 8.10658 4.81445 8.25551L1.31664 11.7554C1.19012 11.882 1.08593 12.2097 1.10826 12.3809L1.33152 14.0118C1.37617 14.2947 1.6813 14.6149 1.9641 14.6522L3.58649 14.8756C3.7651 14.9053 4.09256 14.8011 4.21907 14.6745L7.73177 11.1671C7.88061 11.0182 8.09643 10.9735 8.28993 11.0331C10.0835 11.599 12.0408 11.115 13.3804 9.77462C14.333 8.82146 14.8614 7.54064 14.8614 6.18535C14.8614 4.82262 14.333 3.54925 13.3804 2.59608C12.4129 1.61313 11.1105 1.1142 9.80813 1.1142Z" fill="#292929"/>
<path d="M5.90862 14.3542C5.76722 14.3542 5.62582 14.3021 5.51419 14.1904L3.80249 12.4777C3.58667 12.2617 3.58667 11.9043 3.80249 11.6883C4.01831 11.4724 4.37554 11.4724 4.59136 11.6883L6.30305 13.4011C6.51888 13.617 6.51888 13.9744 6.30305 14.1904C6.19142 14.3021 6.05002 14.3542 5.90862 14.3542Z" fill="#292929"/>
<path d="M9.86003 7.80874C8.9372 7.80874 8.18555 7.05663 8.18555 6.13325C8.18555 5.20987 8.9372 4.45776 9.86003 4.45776C10.7829 4.45776 11.5345 5.20987 11.5345 6.13325C11.5345 7.05663 10.7829 7.80874 9.86003 7.80874ZM9.86003 5.57476C9.5549 5.57476 9.30187 5.82794 9.30187 6.13325C9.30187 6.43857 9.5549 6.69175 9.86003 6.69175C10.1652 6.69175 10.4182 6.43857 10.4182 6.13325C10.4182 5.82794 10.1652 5.57476 9.86003 5.57476Z" fill="#292929"/>
</svg>
