<svg width="21" height="18" viewBox="0 0 21 18" fill="none" xmlns="http://www.w3.org/2000/svg">
<path d="M14.8731 0C13.9164 0.0149445 12.9805 0.283151 12.16 0.777534C11.3394 1.27192 10.6634 1.97497 10.2 2.8157C9.73663 1.97497 9.06055 1.27192 8.24004 0.777534C7.41953 0.283151 6.48364 0.0149445 5.52689 0C4.0017 0.0665449 2.56473 0.736564 1.52991 1.86368C0.495096 2.99079 -0.0534515 4.48338 0.00411328 6.01535C0.00411328 9.89504 4.07057 14.1322 7.4811 17.0051C8.24257 17.6477 9.20535 18 10.2 18C11.1946 18 12.1574 17.6477 12.9189 17.0051C16.3294 14.1322 20.3959 9.89504 20.3959 6.01535C20.4535 4.48338 19.9049 2.99079 18.8701 1.86368C17.8353 0.736564 16.3983 0.0665449 14.8731 0ZM11.8271 15.6996C11.3717 16.0848 10.7954 16.296 10.2 16.296C9.6046 16.296 9.02834 16.0848 8.57291 15.6996C4.20737 12.0213 1.70343 8.49231 1.70343 6.01535C1.64535 4.93576 2.01471 3.8769 2.73097 3.06971C3.44723 2.26251 4.45227 1.77248 5.52689 1.70648C6.6015 1.77248 7.60654 2.26251 8.3228 3.06971C9.03906 3.8769 9.40842 4.93576 9.35034 6.01535C9.35034 6.24164 9.43986 6.45867 9.5992 6.61868C9.75854 6.7787 9.97466 6.86859 10.2 6.86859C10.4253 6.86859 10.6415 6.7787 10.8008 6.61868C10.9601 6.45867 11.0497 6.24164 11.0497 6.01535C10.9916 4.93576 11.3609 3.8769 12.0772 3.06971C12.7935 2.26251 13.7985 1.77248 14.8731 1.70648C15.9477 1.77248 16.9528 2.26251 17.669 3.06971C18.3853 3.8769 18.7547 4.93576 18.6966 6.01535C18.6966 8.49231 16.1926 12.0213 11.8271 15.6962V15.6996Z" fill="#858585"/>
</svg>
