<svg width="21" height="20" viewBox="0 0 21 20" fill="none" xmlns="http://www.w3.org/2000/svg">
<g clip-path="url(#clip0_902_330)">
<path d="M13.8335 17.5V15.8333C13.8335 14.9493 13.4823 14.1014 12.8572 13.4763C12.2321 12.8512 11.3842 12.5 10.5002 12.5H4.66683C3.78277 12.5 2.93493 12.8512 2.30981 13.4763C1.68469 14.1014 1.3335 14.9493 1.3335 15.8333V17.5" stroke="white" stroke-width="1.5" stroke-linecap="round" stroke-linejoin="round"/>
<path d="M7.58333 9.16667C9.42428 9.16667 10.9167 7.67428 10.9167 5.83333C10.9167 3.99238 9.42428 2.5 7.58333 2.5C5.74238 2.5 4.25 3.99238 4.25 5.83333C4.25 7.67428 5.74238 9.16667 7.58333 9.16667Z" stroke="white" stroke-width="1.5" stroke-linecap="round" stroke-linejoin="round"/>
<path d="M17.1665 6.66675V11.6667" stroke="white" stroke-width="1.5" stroke-linecap="round" stroke-linejoin="round"/>
<path d="M19.6665 9.16675H14.6665" stroke="white" stroke-width="1.5" stroke-linecap="round" stroke-linejoin="round"/>
</g>
<defs>
<clipPath id="clip0_902_330">
<rect width="20" height="20" fill="white" transform="translate(0.5)"/>
</clipPath>
</defs>
</svg>
