<svg width="23" height="23" viewBox="0 0 23 23" fill="none" xmlns="http://www.w3.org/2000/svg">
<path d="M22.6668 1.08486C22.6671 1.07141 22.6671 1.05846 22.6668 1.04501C22.6658 1.01226 22.6627 0.979992 22.6575 0.947725C22.6558 0.937703 22.6553 0.927925 22.6531 0.917903C22.6448 0.87757 22.6331 0.83797 22.6179 0.799592C22.6135 0.788347 22.6079 0.777836 22.603 0.766836C22.5901 0.737747 22.5754 0.709636 22.5585 0.682258C22.5517 0.671014 22.5448 0.659769 22.5373 0.648525C22.5123 0.612591 22.4854 0.578125 22.4539 0.546591C22.4221 0.514813 22.3872 0.48768 22.351 0.462502C22.3407 0.455413 22.3302 0.448813 22.3195 0.442458C22.2906 0.424613 22.261 0.409213 22.2305 0.395769C22.2209 0.391613 22.2119 0.386724 22.2021 0.382813C22.1628 0.367413 22.1222 0.355191 22.0806 0.34688C22.0731 0.345413 22.0652 0.344924 22.0577 0.343458C22.0229 0.337591 21.988 0.334169 21.9528 0.333435C21.9411 0.333191 21.9296 0.333191 21.9181 0.333435C21.8836 0.334169 21.8491 0.337591 21.8147 0.343458C21.8061 0.344924 21.7978 0.345413 21.7893 0.347124C21.7516 0.354702 21.7145 0.364969 21.6778 0.378658L1.1427 8.0843C0.867939 8.18745 0.681183 8.44436 0.667739 8.7377C0.654539 9.03079 0.817339 9.30383 1.08158 9.43143L9.50394 13.4961L13.5683 21.9184C13.6913 22.1729 13.9487 22.3332 14.2291 22.3332C14.2403 22.3332 14.2513 22.333 14.2625 22.3325C14.5556 22.3191 14.8128 22.1323 14.9159 21.8575L22.6218 1.3227C22.6355 1.28628 22.6455 1.24937 22.6531 1.21197C22.6551 1.20195 22.6558 1.19217 22.6573 1.18215C22.6627 1.14988 22.6658 1.11737 22.6668 1.08486ZM19.0214 2.94191L9.90336 12.0599L3.26277 8.85552L19.0214 2.94191ZM14.1447 19.7375L10.9403 13.0971L20.0586 3.97884L14.1447 19.7375Z" fill="white"/>
</svg>
