<svg width="20" height="20" viewBox="0 0 20 20" fill="none" xmlns="http://www.w3.org/2000/svg">
<path d="M18 8C18 7.44772 17.5523 7 17 7C16.4477 7 16 7.44772 16 8H18ZM4 8C4 7.44772 3.55228 7 3 7C2.44772 7 2 7.44772 2 8H4ZM18.2929 10.7071C18.6834 11.0976 19.3166 11.0976 19.7071 10.7071C20.0976 10.3166 20.0976 9.68342 19.7071 9.29289L18.2929 10.7071ZM10 1L10.7071 0.292893C10.3166 -0.0976311 9.68342 -0.0976311 9.29289 0.292893L10 1ZM0.292893 9.29289C-0.0976311 9.68342 -0.0976311 10.3166 0.292893 10.7071C0.683417 11.0976 1.31658 11.0976 1.70711 10.7071L0.292893 9.29289ZM5 20H15V18H5V20ZM18 17V8H16V17H18ZM4 17V8H2V17H4ZM19.7071 9.29289L10.7071 0.292893L9.29289 1.70711L18.2929 10.7071L19.7071 9.29289ZM9.29289 0.292893L0.292893 9.29289L1.70711 10.7071L10.7071 1.70711L9.29289 0.292893ZM15 20C16.6569 20 18 18.6569 18 17H16C16 17.5523 15.5523 18 15 18V20ZM5 18C4.44772 18 4 17.5523 4 17H2C2 18.6569 3.34315 20 5 20V18Z" fill="#777777"/>
</svg>
