<svg width="22" height="20" viewBox="0 0 22 20" fill="none" xmlns="http://www.w3.org/2000/svg">
<path d="M20.4034 0.817648H11.5339C11.2986 0.817648 11.073 0.913886 10.9067 1.08519C10.7404 1.25649 10.6469 1.48883 10.6469 1.73109V4.71806L8.51825 0.918127C8.36291 0.639137 8.13881 0.407322 7.86861 0.246109C7.5984 0.0848964 7.29166 0 6.97939 0C6.66711 0 6.36037 0.0848964 6.09017 0.246109C5.81996 0.407322 5.59586 0.639137 5.44053 0.918127L0.118829 10.4088C0.0409826 10.5477 0 10.7052 0 10.8655C0 11.0259 0.0409826 11.1834 0.118829 11.3223C0.196973 11.4617 0.309495 11.5773 0.445001 11.6575C0.580507 11.7377 0.734186 11.7796 0.890475 11.779H4.69549C4.52328 12.3717 4.43662 12.9872 4.43827 13.6059C4.43827 15.3017 5.0924 16.9281 6.25675 18.1272C7.42109 19.3263 9.00029 20 10.6469 20C12.2936 20 13.8728 19.3263 15.0371 18.1272C16.2015 16.9281 16.8556 15.3017 16.8556 13.6059C16.8572 12.9872 16.7706 12.3717 16.5984 11.779H20.4034C20.6386 11.779 20.8642 11.6828 21.0305 11.5114C21.1969 11.3401 21.2903 11.1078 21.2903 10.8655V1.73109C21.2903 1.48883 21.1969 1.25649 21.0305 1.08519C20.8642 0.913886 20.6386 0.817648 20.4034 0.817648ZM2.4249 9.9521L6.97495 1.83157L10.0172 7.21176C9.13018 7.31343 8.27487 7.61084 7.50957 8.08374C6.74427 8.55664 6.08696 9.1939 5.58244 9.9521H2.4249ZM10.6469 18.1731C9.76981 18.1731 8.9124 17.9052 8.18311 17.4034C7.45382 16.9015 6.88541 16.1882 6.54975 15.3537C6.21409 14.5191 6.12627 13.6008 6.29739 12.7149C6.4685 11.8289 6.89087 11.0151 7.51108 10.3764C8.13129 9.73763 8.92149 9.30264 9.78175 9.12641C10.642 8.95019 11.5337 9.04063 12.344 9.38631C13.1544 9.732 13.847 10.3174 14.3343 11.0685C14.8216 11.8195 15.0817 12.7026 15.0817 13.6059C15.0817 14.8172 14.6144 15.9789 13.7828 16.8354C12.9511 17.6919 11.8231 18.1731 10.6469 18.1731ZM19.5164 9.9521H15.738C14.9325 8.76777 13.7645 7.89609 12.4208 7.47666V2.64454H19.5164V9.9521Z" fill="#FF141D"/>
</svg>
