<svg width="18" height="19" viewBox="0 0 18 19" fill="none" xmlns="http://www.w3.org/2000/svg">
<path d="M9 0C7.21997 0 5.47991 0.534293 3.99987 1.53532C2.51983 2.53634 1.36628 3.95913 0.685088 5.62377C0.00389957 7.28841 -0.17433 9.12013 0.172936 10.8873C0.520203 12.6545 1.37737 14.2777 2.63604 15.5518C3.89471 16.8258 5.49836 17.6935 7.24419 18.045C8.99002 18.3965 10.7996 18.2161 12.4442 17.5266C14.0887 16.8371 15.4943 15.6694 16.4832 14.1713C17.4722 12.6731 18 10.9118 18 9.11002C17.9974 6.6947 17.0484 4.37904 15.3611 2.67115C13.6738 0.963254 11.3862 0.00261236 9 0V0ZM9 16.7017C7.51664 16.7017 6.06659 16.2565 4.83323 15.4223C3.59986 14.5881 2.63856 13.4024 2.07091 12.0152C1.50325 10.628 1.35473 9.1016 1.64411 7.62896C1.9335 6.15632 2.64781 4.80361 3.6967 3.74189C4.7456 2.68017 6.08197 1.95714 7.53683 1.66421C8.99168 1.37128 10.4997 1.52162 11.8701 2.09622C13.2406 2.67082 14.4119 3.64386 15.236 4.89231C16.0601 6.14075 16.5 7.60853 16.5 9.11002C16.4978 11.1228 15.7069 13.0525 14.3009 14.4757C12.8948 15.899 10.9885 16.6995 9 16.7017Z" fill="black"/>
<path d="M9.35471 4.55493C9.15043 4.55493 8.95451 4.64534 8.81006 4.80627C8.66562 4.9672 8.58446 5.18546 8.58446 5.41305V9.12442L5.98796 10.9368C5.81432 11.0576 5.69089 11.2504 5.64481 11.4726C5.59873 11.6948 5.63378 11.9284 5.74226 12.1218C5.85073 12.3153 6.02374 12.4528 6.22322 12.5041C6.42271 12.5555 6.63233 12.5164 6.80597 12.3956L9.76371 10.3361C9.87546 10.2581 9.96737 10.1494 10.0306 10.0205C10.0939 9.89158 10.1264 9.74673 10.125 9.59982V5.41305C10.125 5.18546 10.0438 4.9672 9.89936 4.80627C9.75491 4.64534 9.55899 4.55493 9.35471 4.55493Z" fill="black"/>
</svg>
