<svg width="24" height="21" viewBox="0 0 24 21" fill="none" xmlns="http://www.w3.org/2000/svg">
<path d="M17.2708 0C16.1917 0.0167851 15.1361 0.318026 14.2106 0.873301C13.2852 1.42858 12.5226 2.21822 12 3.1625C11.4774 2.21822 10.7148 1.42858 9.78935 0.873301C8.86389 0.318026 7.8083 0.0167851 6.72917 0C5.0089 0.0747411 3.38813 0.827285 2.22096 2.09322C1.05378 3.35916 0.435073 5.03559 0.500001 6.75625C0.500001 11.1138 5.08658 15.8729 8.93333 19.0996C9.79221 19.8213 10.8781 20.217 12 20.217C13.1219 20.217 14.2078 19.8213 15.0667 19.0996C18.9134 15.8729 23.5 11.1138 23.5 6.75625C23.5649 5.03559 22.9462 3.35916 21.779 2.09322C20.6119 0.827285 18.9911 0.0747411 17.2708 0ZM13.8352 17.6333C13.3215 18.0659 12.6716 18.3031 12 18.3031C11.3284 18.3031 10.6785 18.0659 10.1648 17.6333C5.24087 13.502 2.41667 9.53829 2.41667 6.75625C2.35116 5.54369 2.76777 4.35441 3.57564 3.4478C4.38351 2.54118 5.5171 1.99079 6.72917 1.91667C7.94123 1.99079 9.07482 2.54118 9.88269 3.4478C10.6906 4.35441 11.1072 5.54369 11.0417 6.75625C11.0417 7.01042 11.1426 7.25417 11.3224 7.43389C11.5021 7.61362 11.7458 7.71458 12 7.71458C12.2542 7.71458 12.4979 7.61362 12.6776 7.43389C12.8574 7.25417 12.9583 7.01042 12.9583 6.75625C12.8928 5.54369 13.3094 4.35441 14.1173 3.4478C14.9252 2.54118 16.0588 1.99079 17.2708 1.91667C18.4829 1.99079 19.6165 2.54118 20.4244 3.4478C21.2322 4.35441 21.6488 5.54369 21.5833 6.75625C21.5833 9.53829 18.7591 13.502 13.8352 17.6295V17.6333Z" fill="#616161"/>
</svg>
