<svg width="24" height="22" viewBox="0 0 24 22" fill="none" xmlns="http://www.w3.org/2000/svg">
<path d="M17.2706 0.891602C16.1915 0.908387 15.1359 1.20963 14.2104 1.7649C13.2849 2.32018 12.5224 3.10983 11.9998 4.0541C11.4771 3.10983 10.7146 2.32018 9.78911 1.7649C8.86365 1.20963 7.80805 0.908387 6.72892 0.891602C5.00866 0.966343 3.38789 1.71889 2.22071 2.98482C1.05354 4.25076 0.434829 5.92719 0.499757 7.64785C0.499757 12.0054 5.08634 16.7645 8.93309 19.9912C9.79196 20.7129 10.8779 21.1086 11.9998 21.1086C13.1216 21.1086 14.2075 20.7129 15.0664 19.9912C18.9132 16.7645 23.4998 12.0054 23.4998 7.64785C23.5647 5.92719 22.946 4.25076 21.7788 2.98482C20.6116 1.71889 18.9909 0.966343 17.2706 0.891602Z" fill="#FF141D"/>
</svg>
