<svg width="23" height="22" viewBox="0 0 23 22" fill="none" xmlns="http://www.w3.org/2000/svg">
<path d="M21.8408 11.2099L22.8389 11.2703C22.8628 10.876 22.6523 10.5046 22.3017 10.3225C21.9512 10.1404 21.5263 10.1818 21.2174 10.428L21.8408 11.2099ZM7.27592 1.00003L8.22377 1.31875C8.34973 0.944159 8.24326 0.530523 7.9521 0.263295C7.66095 -0.00393283 7.23972 -0.0746204 6.87728 0.082925L7.27592 1.00003ZM21.2174 10.428C19.8039 11.555 18.0147 12.2279 16.0656 12.2279V14.2279C18.4838 14.2279 20.7092 13.391 22.4642 11.9918L21.2174 10.428ZM16.0656 12.2279C11.4976 12.2279 7.79446 8.52481 7.79446 3.95678H5.79446C5.79446 9.62938 10.393 14.2279 16.0656 14.2279V12.2279ZM7.79446 3.95678C7.79446 3.0327 7.94561 2.14597 8.22377 1.31875L6.32807 0.68131C5.98173 1.7113 5.79446 2.81319 5.79446 3.95678H7.79446ZM2 10.57C2 6.69838 4.33334 3.36949 7.67457 1.91714L6.87728 0.082925C2.83201 1.84132 0 5.87381 0 10.57H2ZM11.43 20C6.22197 20 2 15.7781 2 10.57H0C0 16.8826 5.1174 22 11.43 22V20ZM20.8426 11.1495C20.5437 16.0872 16.4435 20 11.43 20V22C17.5075 22 22.4766 17.2573 22.8389 11.2703L20.8426 11.1495Z" fill="#FAFAFA"/>
</svg>
