<svg width="14" height="14" viewBox="0 0 14 14" fill="none" xmlns="http://www.w3.org/2000/svg">
<path d="M13.4863 0.514165C13.2771 0.302484 13.0169 0.148321 12.7308 0.0665717C12.4446 -0.015178 12.1422 -0.0217514 11.8528 0.0474866L2.51819 2.01337C1.98062 2.08708 1.47431 2.3094 1.05628 2.65529C0.638249 3.00118 0.325098 3.4569 0.152095 3.97112C-0.0209086 4.48535 -0.0468934 5.03766 0.0770666 5.56585C0.201027 6.09404 0.470008 6.57714 0.853719 6.96074L1.85602 7.96235C1.91027 8.01658 1.95329 8.08097 1.98262 8.15184C2.01195 8.2227 2.02702 8.29866 2.02696 8.37536V10.2234C2.02824 10.4832 2.08807 10.7395 2.20198 10.973L2.19731 10.9771L2.21248 10.9923C2.38343 11.3359 2.66263 11.6139 3.00709 11.7833L3.02226 11.7984L3.02634 11.7938C3.25991 11.9077 3.51615 11.9675 3.77602 11.9688H5.62427C5.7789 11.9687 5.92726 12.0299 6.03674 12.1391L7.03845 13.1407C7.30713 13.4123 7.62691 13.6281 7.97937 13.7756C8.33182 13.9231 8.70999 13.9993 9.09206 14C9.41046 13.9996 9.72668 13.9476 10.0284 13.846C10.538 13.6787 10.9907 13.3723 11.3354 12.9615C11.6801 12.5506 11.9032 12.0516 11.9794 11.5208L13.9484 2.16679C14.0212 1.87491 14.0169 1.5691 13.9359 1.27938C13.8549 0.989655 13.7 0.725961 13.4863 0.514165ZM2.68213 7.13866L1.67924 6.13705C1.44572 5.90918 1.28204 5.61942 1.20743 5.30179C1.13282 4.98417 1.15037 4.65185 1.25802 4.34384C1.36239 4.02786 1.55533 3.74849 1.81389 3.53898C2.07246 3.32946 2.38576 3.19861 2.71655 3.16198L11.9584 1.21652L3.19261 9.98248V8.37536C3.19349 8.14572 3.14883 7.91818 3.06121 7.7059C2.97359 7.49363 2.84474 7.30083 2.68213 7.13866ZM10.833 11.3213C10.7882 11.6435 10.6544 11.9468 10.4468 12.1972C10.2392 12.4477 9.96581 12.6353 9.65746 12.739C9.3491 12.8427 9.01794 12.8585 8.70113 12.7844C8.38433 12.7104 8.09443 12.5496 7.86398 12.32L6.86051 11.3166C6.69854 11.1538 6.50588 11.0246 6.29368 10.9367C6.08149 10.8488 5.85396 10.8038 5.62427 10.8044H4.01697L12.7839 2.04137L10.833 11.3213Z" fill="black"/>
</svg>
