<svg width="25" height="25" viewBox="0 0 25 25" fill="none" xmlns="http://www.w3.org/2000/svg">
<path d="M12.5 0C10.0277 0 7.61099 0.733112 5.55538 2.10663C3.49976 3.48015 1.89761 5.43238 0.951511 7.71646C0.00541607 10.0005 -0.242126 12.5139 0.24019 14.9386C0.722505 17.3634 1.91301 19.5907 3.66117 21.3388C5.40933 23.087 7.63661 24.2775 10.0614 24.7598C12.4861 25.2421 14.9995 24.9946 17.2835 24.0485C19.5676 23.1024 21.5199 21.5002 22.8934 19.4446C24.2669 17.389 25 14.9723 25 12.5C24.9964 9.18589 23.6783 6.00855 21.3349 3.66512C18.9914 1.3217 15.8141 0.00358446 12.5 0V0ZM12.5 22.9167C10.4398 22.9167 8.42583 22.3057 6.71281 21.1611C4.9998 20.0165 3.66467 18.3897 2.87626 16.4863C2.08785 14.5829 1.88156 12.4884 2.28349 10.4678C2.68542 8.44717 3.67751 6.5911 5.13431 5.1343C6.5911 3.67751 8.44718 2.68542 10.4678 2.28349C12.4884 1.88156 14.5829 2.08784 16.4863 2.87625C18.3897 3.66467 20.0165 4.9998 21.1611 6.71281C22.3057 8.42582 22.9167 10.4398 22.9167 12.5C22.9136 15.2617 21.8152 17.9095 19.8623 19.8623C17.9095 21.8152 15.2617 22.9136 12.5 22.9167Z" fill="#FAFAFA"/>
<path d="M12.9927 6.25C12.7089 6.25 12.4368 6.37405 12.2362 6.59486C12.0356 6.81568 11.9229 7.11516 11.9229 7.42744V12.5199L8.31662 15.0066C8.07545 15.1724 7.90401 15.4369 7.84001 15.7418C7.77601 16.0468 7.8247 16.3672 7.97536 16.6327C8.12601 16.8981 8.3663 17.0868 8.64337 17.1572C8.92043 17.2277 9.21156 17.1741 9.45273 17.0083L13.5607 14.1824C13.7159 14.0754 13.8436 13.9263 13.9314 13.7494C14.0193 13.5725 14.0644 13.3737 14.0624 13.1722V7.42744C14.0624 7.11516 13.9497 6.81568 13.7491 6.59486C13.5485 6.37405 13.2764 6.25 12.9927 6.25Z" fill="#FAFAFA"/>
</svg>
