<svg width="15" height="14" viewBox="0 0 15 14" fill="none" xmlns="http://www.w3.org/2000/svg">
<path d="M13.7533 0.745802C13.5516 0.541681 13.3007 0.393024 13.0248 0.314194C12.7489 0.235364 12.4573 0.229025 12.1782 0.295791L3.17799 2.19146C2.65968 2.26255 2.17151 2.47693 1.76845 2.81046C1.36539 3.144 1.06345 3.58344 0.896647 4.0793C0.72984 4.57516 0.704786 5.10774 0.824306 5.61707C0.943826 6.1264 1.20317 6.59224 1.57314 6.96214L2.53954 7.92798C2.59184 7.98027 2.63332 8.04236 2.66161 8.1107C2.68989 8.17904 2.70441 8.25228 2.70436 8.32624V10.1083C2.7056 10.3588 2.76328 10.6059 2.87311 10.8311L2.86861 10.8351L2.88324 10.8497C3.04806 11.1811 3.31726 11.4491 3.64938 11.6124L3.66401 11.6271L3.66794 11.6226C3.89315 11.7324 4.14021 11.7901 4.39077 11.7913H6.17282C6.32191 11.7912 6.46496 11.8503 6.57052 11.9556L7.53635 12.9214C7.7954 13.1833 8.10373 13.3914 8.44356 13.5336C8.7834 13.6758 9.14802 13.7494 9.5164 13.75C9.8234 13.7496 10.1283 13.6995 10.4192 13.6015C10.9106 13.4402 11.347 13.1447 11.6794 12.7486C12.0118 12.3524 12.2268 11.8712 12.3003 11.3593L14.1988 2.3394C14.269 2.05794 14.2649 1.76306 14.1868 1.48369C14.1087 1.20431 13.9593 0.950034 13.7533 0.745802ZM3.33606 7.13371L2.3691 6.16787C2.14393 5.94813 1.98612 5.66873 1.91419 5.36244C1.84225 5.05616 1.85917 4.73571 1.96296 4.43871C2.06359 4.13401 2.24962 3.86462 2.49892 3.66258C2.74823 3.46055 3.05031 3.33437 3.36925 3.29905L12.28 1.42307L3.82826 9.87597V8.32624C3.82911 8.1048 3.78605 7.88539 3.70157 7.68069C3.61708 7.476 3.49285 7.29009 3.33606 7.13371ZM11.1949 11.1669C11.1518 11.4776 11.0228 11.7701 10.8226 12.0116C10.6224 12.2531 10.3589 12.434 10.0616 12.534C9.76424 12.6341 9.44494 12.6492 9.13948 12.5779C8.83403 12.5065 8.55451 12.3514 8.33231 12.13L7.36479 11.1624C7.20862 11.0054 7.02286 10.8809 6.81826 10.7961C6.61366 10.7114 6.39428 10.668 6.17282 10.6685H4.62309L13.076 2.21846L11.1949 11.1669Z" fill="white"/>
</svg>
