<svg width="16" height="16" viewBox="0 0 16 16" fill="none" xmlns="http://www.w3.org/2000/svg">
<path d="M8 16C3.58698 16 0 12.413 0 8C0 3.58698 3.58698 0 8 0C12.413 0 16 3.58698 16 8C16 12.413 12.413 16 8 16ZM8 1.11628C4.20465 1.11628 1.11628 4.20465 1.11628 8C1.11628 11.7953 4.20465 14.8837 8 14.8837C11.7953 14.8837 14.8837 11.7953 14.8837 8C14.8837 4.20465 11.7953 1.11628 8 1.11628Z" fill="#292D32"/>
<path d="M8.00045 6.88349C8.30557 6.88349 8.55859 7.13652 8.55859 7.44163V11.1626C8.55859 11.4677 8.30557 11.7207 8.00045 11.7207C7.69534 11.7207 7.44231 11.4677 7.44231 11.1626V7.44163C7.44231 7.13652 7.69534 6.88349 8.00045 6.88349Z" fill="#292D32"/>
<path d="M7.99995 4.46506C8.0967 4.46506 8.19344 4.48738 8.28275 4.52459C8.37205 4.5618 8.45391 4.61389 8.52833 4.68087C8.5953 4.75529 8.6474 4.82971 8.68461 4.92645C8.72182 5.01575 8.74414 5.1125 8.74414 5.20924C8.74414 5.30599 8.72182 5.40273 8.68461 5.49203C8.6474 5.58133 8.5953 5.6632 8.52833 5.73761C8.45391 5.80459 8.37205 5.85668 8.28275 5.89389C8.10414 5.96831 7.89577 5.96831 7.71716 5.89389C7.62786 5.85668 7.546 5.80459 7.47158 5.73761C7.40461 5.6632 7.35251 5.58133 7.3153 5.49203C7.27809 5.40273 7.25577 5.30599 7.25577 5.20924C7.25577 5.1125 7.27809 5.01575 7.3153 4.92645C7.35251 4.82971 7.40461 4.75529 7.47158 4.68087C7.546 4.61389 7.62786 4.5618 7.71716 4.52459C7.80647 4.48738 7.90321 4.46506 7.99995 4.46506Z" fill="#292D32"/>
</svg>
