<svg width="14" height="16" viewBox="0 0 14 16" fill="none" xmlns="http://www.w3.org/2000/svg">
<path d="M6.97534 9.61048C5.39096 9.61048 4.09668 8.32364 4.09668 6.73182C4.09668 5.14 5.39096 3.8606 6.97534 3.8606C8.55972 3.8606 9.854 5.14744 9.854 6.73926C9.854 8.33107 8.55972 9.61048 6.97534 9.61048ZM6.97534 4.97636C6.00835 4.97636 5.21244 5.76483 5.21244 6.73926C5.21244 7.71369 6.00091 8.50216 6.97534 8.50216C7.94977 8.50216 8.73824 7.71369 8.73824 6.73926C8.73824 5.76483 7.94233 4.97636 6.97534 4.97636Z" fill="#292D32"/>
<path d="M6.97472 16C5.87384 16 4.76552 15.5834 3.90266 14.7578C1.70833 12.6453 -0.716585 9.27569 0.198338 5.26639C1.024 1.62901 4.2002 0 6.97472 0C6.97472 0 6.97472 0 6.98216 0C9.75668 0 12.9329 1.62901 13.7585 5.27383C14.666 9.28312 12.2411 12.6453 10.0468 14.7578C9.18393 15.5834 8.07561 16 6.97472 16ZM6.97472 1.11576C4.81015 1.11576 2.02819 2.26871 1.29178 5.51185C0.488436 9.01534 2.6902 12.0353 4.68369 13.947C5.97054 15.1892 7.98634 15.1892 9.27319 13.947C11.2592 12.0353 13.461 9.01534 12.6725 5.51185C11.9287 2.26871 9.1393 1.11576 6.97472 1.11576Z" fill="#292D32"/>
</svg>
