<svg width="16" height="16" viewBox="0 0 16 16" fill="none" xmlns="http://www.w3.org/2000/svg">
<path d="M7.99967 15.2066C7.53967 15.2066 7.10634 14.9733 6.79967 14.5666L5.79967 13.2333C5.77967 13.2066 5.69967 13.1733 5.66634 13.1666H5.33301C2.55301 13.1666 0.833008 12.4133 0.833008 8.66659V5.33325C0.833008 2.38659 2.38634 0.833252 5.33301 0.833252H10.6663C13.613 0.833252 15.1663 2.38659 15.1663 5.33325V8.66659C15.1663 11.6133 13.613 13.1666 10.6663 13.1666H10.333C10.2797 13.1666 10.233 13.1933 10.1997 13.2333L9.19967 14.5666C8.89301 14.9733 8.45967 15.2066 7.99967 15.2066ZM5.33301 1.83325C2.94634 1.83325 1.83301 2.94659 1.83301 5.33325V8.66659C1.83301 11.6799 2.86634 12.1666 5.33301 12.1666H5.66634C6.00634 12.1666 6.39301 12.3599 6.59967 12.6333L7.59967 13.9666C7.83301 14.2733 8.16634 14.2733 8.39967 13.9666L9.39967 12.6333C9.61967 12.3399 9.96634 12.1666 10.333 12.1666H10.6663C13.053 12.1666 14.1663 11.0533 14.1663 8.66659V5.33325C14.1663 2.94659 13.053 1.83325 10.6663 1.83325H5.33301Z" fill="#292929"/>
<path d="M11.3337 5.83325H4.66699C4.39366 5.83325 4.16699 5.60659 4.16699 5.33325C4.16699 5.05992 4.39366 4.83325 4.66699 4.83325H11.3337C11.607 4.83325 11.8337 5.05992 11.8337 5.33325C11.8337 5.60659 11.607 5.83325 11.3337 5.83325Z" fill="#292929"/>
<path d="M8.66699 9.16675H4.66699C4.39366 9.16675 4.16699 8.94008 4.16699 8.66675C4.16699 8.39341 4.39366 8.16675 4.66699 8.16675H8.66699C8.94033 8.16675 9.16699 8.39341 9.16699 8.66675C9.16699 8.94008 8.94033 9.16675 8.66699 9.16675Z" fill="#292929"/>
</svg>
