<svg width="16" height="16" viewBox="0 0 16 16" fill="none" xmlns="http://www.w3.org/2000/svg">
<path d="M5.02326 15.6762C4.81488 15.6762 4.59906 15.6242 4.40557 15.52C3.98138 15.2967 3.72093 14.8502 3.72093 14.3739V13.3172C1.47349 13.0865 0 11.4344 0 9.06787V4.6028C0 2.0428 1.71907 0.32373 4.27907 0.32373H11.7209C14.2809 0.32373 16 2.0428 16 4.6028V9.06787C16 11.6279 14.2809 13.3469 11.7209 13.3469H8.91533L5.74509 15.4605C5.52928 15.6019 5.27628 15.6762 5.02326 15.6762ZM4.27907 1.43256C2.35907 1.43256 1.11628 2.67535 1.11628 4.59535V9.06051C1.11628 10.9805 2.35907 12.2233 4.27907 12.2233C4.58419 12.2233 4.83721 12.4763 4.83721 12.7814V14.3666C4.83721 14.4633 4.89675 14.5079 4.93396 14.5303C4.97117 14.5526 5.04559 14.5749 5.12745 14.5228L8.43909 12.3201C8.52839 12.2605 8.64001 12.2233 8.75164 12.2233H11.7284C13.6484 12.2233 14.8912 10.9805 14.8912 9.06051V4.59535C14.8912 2.67535 13.6484 1.43256 11.7284 1.43256H4.27907Z" fill="#292929"/>
<path d="M7.99952 8.07815C7.69441 8.07815 7.44138 7.82513 7.44138 7.52001V7.36376C7.44138 6.50051 8.07393 6.07631 8.31207 5.91259C8.58742 5.72655 8.67671 5.60004 8.67671 5.40655C8.67671 5.03446 8.37162 4.72932 7.99952 4.72932C7.62743 4.72932 7.32233 5.03446 7.32233 5.40655C7.32233 5.71167 7.06931 5.96469 6.76419 5.96469C6.45908 5.96469 6.20605 5.71167 6.20605 5.40655C6.20605 4.41678 7.00976 3.61304 7.99952 3.61304C8.98929 3.61304 9.79299 4.41678 9.79299 5.40655C9.79299 6.25492 9.1679 6.6791 8.9372 6.83538C8.64697 7.02886 8.55766 7.15539 8.55766 7.36376V7.52001C8.55766 7.83257 8.30464 8.07815 7.99952 8.07815Z" fill="#292929"/>
<path d="M7.99955 9.93122C7.68699 9.93122 7.44141 9.6782 7.44141 9.37308C7.44141 9.06796 7.69443 8.81494 7.99955 8.81494C8.30466 8.81494 8.55769 9.06796 8.55769 9.37308C8.55769 9.6782 8.3121 9.93122 7.99955 9.93122Z" fill="#292929"/>
</svg>
