<svg width="16" height="16" viewBox="0 0 16 16" fill="none" xmlns="http://www.w3.org/2000/svg">
<path d="M8 16C3.58698 16 0 12.413 0 8C0 3.58698 3.58698 0 8 0C12.413 0 16 3.58698 16 8C16 12.413 12.413 16 8 16ZM8 1.11628C4.20465 1.11628 1.11628 4.20465 1.11628 8C1.11628 11.7953 4.20465 14.8837 8 14.8837C11.7953 14.8837 14.8837 11.7953 14.8837 8C14.8837 4.20465 11.7953 1.11628 8 1.11628Z" fill="#292929"/>
<path d="M5.76718 15.2558H5.023C4.71788 15.2558 4.46486 15.0027 4.46486 14.6976C4.46486 14.3925 4.703 14.1469 5.00811 14.1395C3.83974 10.1507 3.83974 5.84926 5.00811 1.86042C4.703 1.85298 4.46486 1.6074 4.46486 1.30228C4.46486 0.997164 4.71788 0.744141 5.023 0.744141H5.76718C5.94579 0.744141 6.11695 0.833443 6.22114 0.974838C6.32532 1.12368 6.35509 1.30972 6.29556 1.48088C4.89649 5.68554 4.89649 10.3144 6.29556 14.5265C6.35509 14.6976 6.32532 14.8837 6.22114 15.0325C6.11695 15.1665 5.94579 15.2558 5.76718 15.2558Z" fill="#292929"/>
<path d="M10.2327 15.256C10.1732 15.256 10.1137 15.2485 10.0541 15.2262C9.7639 15.1295 9.60018 14.8095 9.70437 14.5192C11.1034 10.3146 11.1034 5.68574 9.70437 1.47365C9.60762 1.18342 9.7639 0.863418 10.0541 0.766674C10.3518 0.669929 10.6644 0.826209 10.7611 1.11644C12.242 5.55179 12.242 10.4337 10.7611 14.8616C10.6867 15.1071 10.4634 15.256 10.2327 15.256Z" fill="#292929"/>
<path d="M7.99995 11.8698C5.92368 11.8698 3.85484 11.5795 1.86042 10.9916C1.85298 11.2893 1.6074 11.5349 1.30228 11.5349C0.997164 11.5349 0.744141 11.2818 0.744141 10.9767V10.2325C0.744141 10.0539 0.833443 9.88278 0.974838 9.77859C1.12368 9.6744 1.30972 9.64464 1.48088 9.70417C5.68554 11.1032 10.3218 11.1032 14.5265 9.70417C14.6976 9.64464 14.8837 9.6744 15.0325 9.77859C15.1814 9.88278 15.2632 10.0539 15.2632 10.2325V10.9767C15.2632 11.2818 15.0102 11.5349 14.7051 11.5349C14.4 11.5349 14.1544 11.2967 14.1469 10.9916C12.1451 11.5795 10.0762 11.8698 7.99995 11.8698Z" fill="#292929"/>
<path d="M14.6974 6.32538C14.6379 6.32538 14.5784 6.31794 14.5188 6.29562C10.3142 4.89655 5.67791 4.89655 1.47326 6.29562C1.17558 6.39236 0.863027 6.23608 0.766282 5.94585C0.67698 5.64817 0.833259 5.33562 1.12349 5.23887C5.55884 3.75794 10.4407 3.75794 14.8686 5.23887C15.1588 5.33562 15.3226 5.65562 15.2184 5.94585C15.1514 6.17655 14.9281 6.32538 14.6974 6.32538Z" fill="#292929"/>
</svg>
