<svg width="16" height="16" viewBox="0 0 16 16" fill="none" xmlns="http://www.w3.org/2000/svg">
<path d="M10.2322 7.81397C9.92712 7.81397 9.6741 7.56095 9.6741 7.25583V6.51164C9.6741 5.42513 9.40619 4.83723 7.99968 4.83723C6.59317 4.83723 6.32526 5.42513 6.32526 6.51164V7.25583C6.32526 7.56095 6.07224 7.81397 5.76712 7.81397C5.46201 7.81397 5.20898 7.56095 5.20898 7.25583V6.51164C5.20898 5.81955 5.20898 3.72095 7.99968 3.72095C10.7904 3.72095 10.7904 5.81955 10.7904 6.51164V7.25583C10.7904 7.56095 10.5374 7.81397 10.2322 7.81397Z" fill="#292929"/>
<path d="M8.00073 10.493C7.45003 10.493 6.99609 10.039 6.99609 9.4883C6.99609 8.9376 7.45003 8.48364 8.00073 8.48364C8.55142 8.48364 9.00536 8.9376 9.00536 9.4883C9.00536 10.039 8.55142 10.493 8.00073 10.493ZM8.00073 9.37667C7.94119 9.37667 7.88908 9.42876 7.88908 9.4883C7.88908 9.61481 8.11237 9.61481 8.11237 9.4883C8.11237 9.42876 8.06026 9.37667 8.00073 9.37667Z" fill="#292929"/>
<path d="M9.86024 12.2791H6.13931C4.35326 12.2791 3.7207 11.6466 3.7207 9.86054V9.11636C3.7207 7.33031 4.35326 6.69775 6.13931 6.69775H9.86024C11.6463 6.69775 12.2788 7.33031 12.2788 9.11636V9.86054C12.2788 11.6466 11.6463 12.2791 9.86024 12.2791ZM6.13931 7.81403C4.95605 7.81403 4.83698 7.9331 4.83698 9.11636V9.86054C4.83698 11.0438 4.95605 11.1629 6.13931 11.1629H9.86024C11.0435 11.1629 11.1626 11.0438 11.1626 9.86054V9.11636C11.1626 7.9331 11.0435 7.81403 9.86024 7.81403H6.13931Z" fill="#292929"/>
<path d="M8 16C3.58698 16 0 12.413 0 8C0 3.58698 3.58698 0 8 0C12.413 0 16 3.58698 16 8C16 12.413 12.413 16 8 16ZM8 1.11628C4.20465 1.11628 1.11628 4.20465 1.11628 8C1.11628 11.7953 4.20465 14.8837 8 14.8837C11.7953 14.8837 14.8837 11.7953 14.8837 8C14.8837 4.20465 11.7953 1.11628 8 1.11628Z" fill="#292929"/>
</svg>
