<svg width="16" height="16" viewBox="0 0 16 16" fill="none" xmlns="http://www.w3.org/2000/svg">
<path d="M15.4113 0.587617C15.1722 0.345696 14.8749 0.16951 14.5479 0.0760819C14.2209 -0.0173463 13.8753 -0.0248588 13.5446 0.0542704L2.87762 2.30099C2.26332 2.38524 1.68475 2.63932 1.20705 3.03462C0.729349 3.42992 0.371501 3.95074 0.173804 4.53843C-0.0238929 5.12611 -0.0535867 5.75732 0.0880667 6.36097C0.22972 6.96462 0.537094 7.51673 0.975574 7.95513L2.12094 9.09983C2.18293 9.1618 2.23209 9.23539 2.26561 9.31638C2.29913 9.39738 2.31634 9.48419 2.31627 9.57184V11.6839C2.31775 11.9809 2.38611 12.2737 2.51628 12.5406L2.51095 12.5452L2.52828 12.5626C2.72363 12.9553 3.04268 13.273 3.4363 13.4666L3.45364 13.4839L3.4583 13.4786C3.72522 13.6088 4.01803 13.6771 4.31499 13.6786H6.42704C6.60375 13.6785 6.77328 13.7485 6.89839 13.8733L8.04309 15.018C8.35011 15.3284 8.71553 15.575 9.1183 15.7435C9.52106 15.9121 9.9532 15.9992 10.3898 16C10.7537 15.9995 11.115 15.9401 11.4598 15.824C12.0421 15.6328 12.5594 15.2827 12.9534 14.8131C13.3473 14.3436 13.6022 13.7733 13.6892 13.1666L15.9393 2.47633C16.0225 2.14275 16.0176 1.79326 15.925 1.46215C15.8325 1.13103 15.6554 0.82967 15.4113 0.587617ZM3.06496 8.15847L1.91893 7.01378C1.65207 6.75334 1.46503 6.42219 1.37978 6.05919C1.29452 5.69619 1.31457 5.3164 1.43759 4.96439C1.55685 4.60327 1.77733 4.28399 2.0728 4.04455C2.36827 3.8051 2.72629 3.65555 3.10429 3.61369L13.6652 1.3903L3.64831 11.4086V9.57184C3.64932 9.30939 3.59828 9.04935 3.49815 8.80675C3.39802 8.56415 3.25079 8.34381 3.06496 8.15847ZM12.3792 12.9386C12.328 13.3068 12.1752 13.6535 11.9379 13.9397C11.7006 14.2259 11.3883 14.4403 11.0359 14.5589C10.6835 14.6774 10.3051 14.6954 9.94309 14.6108C9.58107 14.5262 9.24979 14.3424 8.98644 14.08L7.83975 12.9333C7.65466 12.7471 7.4345 12.5996 7.19201 12.4991C6.94952 12.3986 6.68952 12.3472 6.42704 12.3479H4.59033L14.6086 2.33299L12.3792 12.9386Z" fill="#292929"/>
</svg>
