<svg width="15" height="16" viewBox="0 0 15 16" fill="none" xmlns="http://www.w3.org/2000/svg">
<path d="M6.36983 11.6839C6.22843 11.6839 6.08704 11.6319 5.97541 11.5202L4.85913 10.4039C4.64331 10.1881 4.64331 9.83092 4.85913 9.61511C5.07494 9.39929 5.43215 9.39929 5.64797 9.61511L6.36983 10.337L8.95216 7.75463C9.16798 7.53882 9.52519 7.53882 9.741 7.75463C9.95682 7.97045 9.95682 8.32766 9.741 8.54347L6.76425 11.5202C6.66006 11.6319 6.51123 11.6839 6.36983 11.6839Z" fill="#292D32"/>
<path d="M8.74398 4.09304H5.76722C5.0528 4.09304 3.7207 4.09304 3.7207 2.04652C3.7207 0 5.0528 0 5.76722 0H8.74398C9.4584 0 10.7905 0 10.7905 2.04652C10.7905 2.76094 10.7905 4.09304 8.74398 4.09304ZM5.76722 1.11628C5.03047 1.11628 4.83699 1.11628 4.83699 2.04652C4.83699 2.97675 5.03047 2.97675 5.76722 2.97675H8.74398C9.67421 2.97675 9.67421 2.78326 9.67421 2.04652C9.67421 1.11628 9.48072 1.11628 8.74398 1.11628H5.76722Z" fill="#292D32"/>
<path d="M9.4884 15.9999H5.02327C0.840933 15.9999 0 14.0799 0 10.9766V6.51149C0 3.11799 1.22791 1.66682 4.24932 1.51054C4.55443 1.49566 4.82234 1.72636 4.83722 2.03892C4.85211 2.35148 4.61397 2.6045 4.30885 2.61939C2.19536 2.73846 1.11628 3.37102 1.11628 6.51149V10.9766C1.11628 13.7301 1.65954 14.8836 5.02327 14.8836H9.4884C12.8521 14.8836 13.3954 13.7301 13.3954 10.9766V6.51149C13.3954 3.37102 12.3163 2.73846 10.2028 2.61939C9.89771 2.6045 9.65957 2.33659 9.67445 2.03148C9.68933 1.72636 9.9498 1.48822 10.2624 1.5031C13.2838 1.66682 14.5117 3.11799 14.5117 6.50405V10.9692C14.5117 14.0799 13.6707 15.9999 9.4884 15.9999Z" fill="#292D32"/>
</svg>
